<?xml version="1.0" encoding="UTF-8" standalone="no"?><!DOCTYPE svg PUBLIC "-//W3C//DTD SVG 1.1//EN" "http://www.w3.org/Graphics/SVG/1.1/DTD/svg11.dtd"><svg width="100%" height="100%" viewBox="0 0 508 217" version="1.1" xmlns="http://www.w3.org/2000/svg" xmlns:xlink="http://www.w3.org/1999/xlink" xml:space="preserve" xmlns:serif="http://www.serif.com/" style="fill-rule:evenodd;clip-rule:evenodd;"><path d="M36.943,69.928c-0.098,-0.011 -0.173,-0.096 -0.173,-0.195c0,-11.23 0.013,-27.572 0.037,-49.027c0,-3.005 -0.268,-5.257 -0.802,-6.757c-4.388,-12.33 -20.108,-14.438 -28.118,-4.875c-2.515,3.005 -3.773,6.913 -3.773,11.722c0.02,32.56 0.037,65.183 0.052,97.868c0.008,16.027 4.718,30.637 15.128,42.6c8.85,10.16 19.795,16.693 32.835,19.597c31.575,7.035 63.45,-10.597 72.15,-42.127c2.925,-10.6 2.855,-21.335 -0.21,-32.205c-6.915,-24.54 -29.835,-42.562 -55.14,-43.875c-10.66,-0.555 -21.13,1.832 -31.41,7.163c-0.185,0.1 -0.377,0.137 -0.577,0.113" style="fill:none;fill-rule:nonzero;stroke:#8c8c8c;stroke-width:1.5px;"/><path d="M266.023,57.973c0.15,0.595 0.47,1.265 0.96,2.01c4.595,7.015 10.373,11.63 17.332,13.845c13.043,4.147 27.293,0.06 35.37,-11.272c1.47,-2.065 2.395,-3.452 2.775,-4.163c0.046,-0.086 0.07,-0.181 0.07,-0.277c0,-0.321 -0.264,-0.585 -0.585,-0.585l-12.962,0c-1.039,0.001 -1.934,-0.769 -2.092,-1.8l-0.038,-0.248c-0.02,-0.101 -0.031,-0.204 -0.031,-0.307c0,-0.851 0.695,-1.553 1.546,-1.56l15.922,-0.098c0.073,-0.001 0.138,-0.045 0.165,-0.113l1.628,-4.215c0.005,-0.014 0.009,-0.027 0.011,-0.041c0.024,-0.125 -0.056,-0.247 -0.178,-0.27c-0.014,-0.003 -0.029,-0.004 -0.043,-0.004l-17.04,0.165c-1.135,0.012 -2.1,-0.864 -2.197,-1.995l-0.008,-0.052c-0.003,-0.033 -0.005,-0.066 -0.007,-0.099c-0.049,-1.077 0.793,-2.002 1.866,-2.051c0.035,-0.002 0.07,-0.002 0.106,-0.002l17.543,0.127c0.426,-0.001 0.787,-0.322 0.832,-0.743l0.33,-2.955c0.003,-0.025 0.005,-0.05 0.005,-0.075c0,-0.357 -0.293,-0.651 -0.649,-0.652l-18.353,-0.12c-0.96,-0.004 -1.748,-0.795 -1.748,-1.755l0,-0.053c0,-1.034 0.848,-1.886 1.882,-1.89l18.233,-0.112c0.006,0 0.012,0 0.018,-0.001c0.242,-0.013 0.431,-0.217 0.418,-0.451c0,-0.007 -0.001,-0.014 -0.002,-0.021l-0.3,-3.248c-0.039,-0.422 -0.397,-0.748 -0.817,-0.742l-17.745,0.052l-0.007,0c-0.958,0 -1.747,-0.789 -1.747,-1.748c0,-0.05 0.002,-0.1 0.007,-0.15l0.007,-0.12c0.063,-1.103 0.988,-1.974 2.092,-1.972l16.507,-0.015c0.018,0 0.035,-0.002 0.053,-0.005c0.162,-0.028 0.272,-0.187 0.244,-0.353c-0.003,-0.016 -0.007,-0.031 -0.012,-0.047c-5.798,-16.575 -22.493,-25.995 -39.69,-21.465c-10.208,2.685 -18.765,11.04 -22.05,21.15c-0.009,0.029 -0.017,0.057 -0.021,0.086c-0.047,0.297 0.163,0.58 0.463,0.627c0.028,0.004 0.055,0.007 0.082,0.007l15.743,0.007c1.027,0.001 1.891,0.802 1.965,1.822l0.015,0.255c0.003,0.045 0.005,0.09 0.005,0.135c0,1.003 -0.825,1.828 -1.828,1.83l-17.452,0c-0.241,-0.002 -0.446,0.181 -0.473,0.42l-0.42,3.712c-0.001,0.013 -0.002,0.025 -0.002,0.038c0,0.197 0.163,0.36 0.36,0.36l0.002,0l17.865,-0.09c1.076,-0.007 1.997,0.803 2.13,1.875l0.008,0.045c0.012,0.079 0.018,0.16 0.018,0.24c0,0.872 -0.718,1.59 -1.59,1.59l-0.003,0l-18.45,0.023c-0.238,0 -0.435,0.197 -0.435,0.435l0,3.488c0,0.308 0.254,0.562 0.562,0.562l17.97,0.09c0.998,0.003 1.817,0.824 1.817,1.822c0,0.032 -0.001,0.065 -0.002,0.098l0,0.075c-0.029,1.022 -0.878,1.849 -1.905,1.853l-17.025,0.037c-0.022,0 -0.043,0.002 -0.065,0.005c-0.235,0.037 -0.401,0.257 -0.364,0.489c0.004,0.023 0.009,0.046 0.017,0.068l1.125,3.548c0.098,0.307 0.383,0.517 0.705,0.517l15.322,-0.03c1.142,-0.006 2.104,0.895 2.175,2.04l0,0.052c0,1.034 -0.848,1.886 -1.882,1.89l-13.717,0.045c-0.016,0 -0.032,0.001 -0.047,0.003c-0.188,0.023 -0.323,0.194 -0.3,0.378c0.002,0.016 0.005,0.031 0.009,0.046" style="fill:none;fill-rule:nonzero;stroke:#8c8c8c;stroke-width:1.5px;"/><path d="M348.883,63.665c-6.78,0.022 -11.79,-0.375 -16.882,4.927c-6.188,6.442 -6.18,16.23 0.225,22.545c4.673,4.597 10.283,5.235 16.455,4.793c0.007,-0.001 0.015,-0.001 0.022,-0.001c0.185,0 0.337,0.152 0.337,0.338l0,0.001c-0.005,3.71 0.008,14 0.038,30.87c0.03,13.965 6.442,27.495 16.192,37.455c8.67,8.86 19.47,13.753 32.4,14.677c6.33,0.458 12.173,0.068 16.98,-4.042c5.31,-4.545 6.982,-12.045 4.11,-18.42c-2.197,-4.86 -7.065,-8.55 -12.053,-9.33c-0.81,-0.13 -3.01,-0.17 -6.6,-0.12c-10.815,0.15 -18.765,-9.668 -18.9,-20.025c-0.135,-9.94 -0.178,-20.35 -0.128,-31.23c0,-0.092 0.074,-0.169 0.165,-0.173c11.455,-0.115 18.05,-0.152 19.785,-0.113c7.597,0.188 13.125,-1.792 16.942,-8.22c2.4,-4.02 2.805,-9.428 0.938,-13.575c-3.155,-7.035 -8.675,-10.515 -16.56,-10.44c-3.1,0.035 -10.012,0.083 -20.737,0.142l-0.007,0c-0.298,0 -0.544,-0.242 -0.548,-0.54c-0.05,-10.135 -0.02,-17.355 0.09,-21.66c0.11,-4.22 -0.205,-7.345 -0.945,-9.375c-1.46,-3.99 -4.168,-6.99 -8.123,-9c-9.375,-4.755 -19.98,0.6 -22.537,10.402c-0.32,1.235 -0.47,4.768 -0.45,10.598c0.05,12.4 0.07,18.817 0.06,19.252c-0.004,0.146 -0.125,0.263 -0.27,0.263" style="fill:none;fill-rule:nonzero;stroke:#8c8c8c;stroke-width:1.5px;"/><path d="M212.076,101.698c-0.135,0.275 -0.377,0.48 -0.728,0.615c-7.505,2.86 -14.905,5.323 -22.2,7.388c-11.1,3.143 -14.843,14.857 -8.452,24.435c3.967,5.94 11.97,7.605 18.577,5.745c8.89,-2.495 19.08,-6.017 30.57,-10.568c4.03,-1.595 6.988,-3.21 8.873,-4.845c6.608,-5.707 12.412,-15.953 9.322,-24.855c-4.215,-12.18 -14.34,-22.447 -25.635,-29.025c-15.75,-9.165 -35.07,-10.583 -51.817,-3.45c-21.562,9.18 -35.55,29.303 -37.178,52.627c-0.975,14.055 2.942,27.083 11.752,39.083c15.322,20.858 42.713,28.027 66.577,20.393c16.793,-5.378 29.715,-16.605 36.788,-32.632c0.144,-0.318 0.043,-0.698 -0.24,-0.908c-7.418,-5.415 -15.022,-8.775 -24.293,-5.79c-4.735,1.525 -8.852,3.075 -12.352,4.65c-2.543,1.14 -4.058,3.285 -6.735,4.298c-5.27,1.995 -10.192,2.692 -14.767,2.092c-9.3,-1.222 -17.025,-6.217 -21.405,-14.662c-8.767,-16.905 1.328,-37.808 19.875,-41.063c8.58,-1.5 16.403,0.908 23.347,5.978c0.155,0.111 0.206,0.321 0.12,0.495" style="fill:none;fill-rule:nonzero;stroke:#8c8c8c;stroke-width:1.5px;"/><path d="M460.101,74.015c-0.067,0.047 -0.147,0.072 -0.229,0.072c-0.158,0 -0.301,-0.093 -0.364,-0.237c-3.435,-7.82 -9.472,-11.467 -18.112,-10.942c-6.457,0.398 -11.617,5.062 -13.8,10.778c-0.59,1.54 -0.87,4.455 -0.84,8.745c0.14,20.39 0.155,46.46 0.045,78.21c-0.015,4.255 0.302,7.258 0.952,9.008c2.835,7.597 9.952,11.828 18.023,10.852c8.145,-0.99 14.408,-8.01 14.43,-16.26c0.06,-20.395 0.07,-35.07 0.03,-44.025c-0.02,-4.275 0.145,-7.022 0.495,-8.243c2.737,-9.517 10.425,-15.142 20.37,-16.132c3.008,-0.3 8.138,0.502 11.423,-0.577c8.752,-2.888 13.485,-11.317 10.845,-20.212c-1.388,-4.65 -5.288,-8.805 -9.743,-10.507c-9.405,-3.593 -20.288,-0.945 -28.11,5.227c-3.41,2.69 -5.215,4.105 -5.415,4.245" style="fill:none;fill-rule:nonzero;stroke:#8c8c8c;stroke-width:1.5px;"/><path d="M312.441,76.25c-11.735,6.08 -23.75,6.225 -36.045,0.435c-0.071,-0.034 -0.149,-0.051 -0.227,-0.051c-0.293,0 -0.533,0.24 -0.533,0.533c0,0.017 0.001,0.034 0.002,0.051l0.585,5.805c0.071,0.712 0.461,1.352 1.058,1.74c0.665,0.515 2.085,1.222 4.26,2.123c2.535,1.05 2.498,2.933 2.707,5.775c0.785,10.38 1.49,21.632 2.115,33.757c0.158,3.053 0.93,4.65 3.517,5.873c0.401,0.189 0.662,0.59 0.675,1.035c0.21,7.88 0.195,14.565 -0.045,20.055c-0.675,15.48 -12.023,22.267 -23.475,29.49c-2.445,1.54 -4.712,3.77 -6.803,6.69c-2.392,3.337 -2.985,7.275 -2.115,11.13c1.537,6.825 7.215,11.273 14.032,12.225c1.445,0.205 4.5,0.305 9.165,0.3c24.31,-0.01 37.015,-0.015 38.115,-0.015l0.031,0c1.51,-0.021 2.735,-1.278 2.714,-2.783c0,-0.01 -0.001,-0.019 -0.001,-0.029l-0.007,-0.173c-0.037,-1.587 -1.352,-2.873 -2.94,-2.872c-11.69,0.01 -25.48,0.037 -41.37,0.082c-2.615,0.005 -4.868,-0.262 -6.757,-0.802c-3.338,-0.952 -6.915,-4.567 -7.118,-8.198c-0.278,-4.942 2.805,-8.452 6.855,-10.988c3.83,-2.405 7.915,-5.203 12.255,-8.392c6.44,-4.735 10.573,-10.802 12.397,-18.202c0.865,-3.5 1.268,-7.997 1.208,-13.493c-0.04,-3.465 -0.04,-8.023 0,-13.673c0.004,-0.685 0.445,-1.298 1.095,-1.522c1.66,-0.57 2.85,-1.65 3.57,-3.24c0.173,-0.381 0.27,-0.791 0.285,-1.208c0.375,-10.26 1.045,-21.643 2.01,-34.147c0.145,-1.895 0.338,-3.32 0.578,-4.275c0.279,-1.093 1.168,-1.968 2.325,-2.287c2.438,-0.668 5.423,-2.017 5.625,-4.658c0.15,-1.94 0.34,-3.898 0.57,-5.873c0.001,-0.008 0.002,-0.016 0.002,-0.024c0,-0.119 -0.098,-0.218 -0.218,-0.218c-0.034,0 -0.068,0.008 -0.099,0.024" style="fill:none;fill-rule:nonzero;stroke:#8c8c8c;stroke-width:1.5px;"/><path d="M278.016,115.205l-0.03,-9.09c0,-0.358 -0.295,-0.652 -0.653,-0.652l-17.093,0.06l-0.006,0c-2.066,0.008 -3.759,1.777 -3.752,3.921l0,0.001l0.015,2.58c0.008,2.14 1.71,3.896 3.773,3.892l17.092,-0.06c0.358,0 0.653,-0.295 0.653,-0.653" style="fill:none;fill-rule:nonzero;stroke:#866336;stroke-width:1.5px;"/><path d="M278.953,129.553l-0.015,-9.33c0,-0.169 -0.139,-0.307 -0.308,-0.307l-17.932,0.037c-2.221,0.005 -4.046,1.812 -4.043,4.005l0,1.95c0.004,2.193 1.835,3.994 4.057,3.99l0.001,0l17.933,-0.038c0.169,0 0.308,-0.139 0.308,-0.307" style="fill:none;fill-rule:nonzero;stroke:#866336;stroke-width:1.5px;"/><path d="M308.923,120.425l-0.015,8.955c0,0.268 0.22,0.488 0.488,0.488l22.455,0.038c2.432,0.005 4.436,-1.844 4.44,-4.095l0,-1.725c0.004,-2.25 -1.993,-4.106 -4.425,-4.11l-22.455,-0.038c-0.268,0 -0.487,0.22 -0.487,0.488" style="fill:none;fill-rule:nonzero;stroke:#866336;stroke-width:1.5px;"/><path d="M503.329,123.625c-0.004,-2.01 -1.658,-3.662 -3.668,-3.662l-0.006,0l-29.91,0.053c-2.01,0.003 -3.662,1.658 -3.662,3.668l0,0.006l0.005,2.505c0.004,2.01 1.658,3.661 3.668,3.661l0.007,0l29.909,-0.053c2.01,-0.003 3.661,-1.657 3.661,-3.668l0,-0.006l-0.004,-2.505" style="fill:none;fill-rule:nonzero;stroke:#83383b;stroke-width:1.5px;"/><path d="M283.783,142.708l0,-4.822c0,-0.083 -0.027,-0.159 -0.075,-0.218l-2.572,-3.105c-0.209,-0.252 -0.519,-0.4 -0.848,-0.405c-7.59,-0.17 -14.15,-0.208 -19.68,-0.112c-2.445,0.045 -3.847,1.38 -3.923,3.997c-0.067,2.175 0.09,5.153 2.76,5.64c0.735,0.135 1.993,0.205 3.772,0.21c11.995,0.045 18.478,0.043 19.447,-0.007c0.623,-0.032 1.118,-0.554 1.117,-1.178" style="fill:none;fill-rule:nonzero;stroke:#866336;stroke-width:1.5px;"/><path d="M304.236,143.645c1.295,0.15 2.185,0.227 2.67,0.233c2.855,0.02 10.72,0.04 23.595,0.06c3.105,0.008 5.46,-0.412 5.722,-3.757c0.255,-3.188 -0.285,-5.97 -3.878,-6.053c-7.095,-0.165 -15.122,-0.16 -24.082,0.015c-0.375,0.005 -0.742,0.128 -1.05,0.352l-3.225,2.348c-0.164,0.118 -0.262,0.308 -0.262,0.51l0,5.73c-0.001,0.287 0.22,0.532 0.51,0.562" style="fill:none;fill-rule:nonzero;stroke:#866336;stroke-width:1.5px;"/><path d="M503.388,137.71l0,-0.012c0,-1.958 -1.607,-3.571 -3.565,-3.577l-30.42,-0.106l-0.013,0c-1.958,0 -3.571,1.607 -3.578,3.565l-0.009,2.61l0,0.012c0,1.958 1.607,3.571 3.565,3.577l30.42,0.106l0.013,0c1.957,0 3.571,-1.607 3.578,-3.565l0.009,-2.61" style="fill:none;fill-rule:nonzero;stroke:#83383b;stroke-width:1.5px;"/><path d="M135.493,157.828l-4.905,-10.072c-0.015,-0.03 -0.036,-0.056 -0.062,-0.078c-0.105,-0.092 -0.265,-0.083 -0.355,0.02c-0.023,0.026 -0.039,0.055 -0.049,0.088c-0.728,2.295 -1.028,5.183 -0.84,7.365c0.24,2.805 3.72,3.435 6.045,3c0.108,-0.018 0.189,-0.113 0.189,-0.222c0,-0.035 -0.008,-0.069 -0.024,-0.101" style="fill:none;fill-rule:nonzero;stroke:#865131;stroke-width:1.5px;"/><path d="M283.716,155.78l-0.015,-5.55c0,-1.218 -1.002,-2.22 -2.22,-2.22l-20.925,0.037c-2.329,0.005 -4.241,1.822 -4.238,4.028l0,1.95c0.004,2.205 1.923,4.016 4.252,4.012c0.001,0 20.926,-0.038 20.926,-0.038c1.218,0 2.22,-1.002 2.22,-2.22" style="fill:none;fill-rule:nonzero;stroke:#866336;stroke-width:1.5px;"/><path d="M303.583,148.828l0,8.4c0,0.457 0.376,0.832 0.832,0.832l27.562,0c2.386,0 4.35,-1.872 4.35,-4.147l0,-1.77c0,-2.275 -1.964,-4.148 -4.35,-4.148l-27.562,0c-0.457,0 -0.832,0.376 -0.832,0.832" style="fill:none;fill-rule:nonzero;stroke:#866336;stroke-width:1.5px;"/><path d="M503.368,151.67c0,-1.975 -1.625,-3.6 -3.6,-3.6l-30.105,0c-1.975,0 -3.6,1.625 -3.6,3.6l0,2.82c0,1.975 1.625,3.6 3.6,3.6l30.105,0c1.975,0 3.6,-1.625 3.6,-3.6l0,-2.82" style="fill:none;fill-rule:nonzero;stroke:#83383b;stroke-width:1.5px;"/><path d="M280.716,162.808c0.015,-0.028 0.026,-0.057 0.034,-0.088c0.056,-0.215 -0.071,-0.437 -0.282,-0.492c-0.031,-0.008 -0.065,-0.013 -0.097,-0.013c-6.105,-0.125 -12.628,-0.15 -19.568,-0.075c-3.045,0.03 -4.47,1.493 -4.552,4.38c-0.135,4.537 1.387,5.82 5.835,5.798c2.515,-0.015 5.312,-0.06 8.392,-0.135c0.668,-0.015 1.322,-0.203 1.898,-0.547c3.465,-2.07 6.245,-5.012 8.34,-8.828" style="fill:none;fill-rule:nonzero;stroke:#866336;stroke-width:1.5px;"/><path d="M302.158,162.973l-2.49,6.45c-0.316,0.818 0.022,1.754 0.787,2.175c0.815,0.445 1.778,0.658 2.888,0.637c3.195,-0.055 12.57,-0.045 28.125,0.03c2.768,0.008 4.53,-1.035 4.74,-3.907c0.135,-1.775 0.11,-2.903 -0.075,-3.382c-0.952,-2.52 -3.15,-2.925 -5.632,-2.91c-15.52,0.09 -24.587,0.133 -27.202,0.127c-0.503,-0.004 -0.959,0.307 -1.14,0.78" style="fill:none;fill-rule:nonzero;stroke:#866336;stroke-width:1.5px;"/><path d="M503.496,166.025c0,-2.127 -1.751,-3.878 -3.877,-3.878l-29.73,0c-2.127,0 -3.877,1.75 -3.877,3.878l0,2.37c0,2.127 1.75,3.877 3.877,3.877l29.73,0c2.127,0 3.877,-1.75 3.877,-3.877l0,-2.37" style="fill:none;fill-rule:nonzero;stroke:#83383b;stroke-width:1.5px;"/><path d="M113.398,172.01c2.655,0.15 5.345,0.202 8.07,0.157c2.865,-0.045 4.455,-1.155 4.35,-4.2c-0.105,-3.03 -0.39,-5.408 -3.683,-5.745c-0.415,-0.042 -0.823,0.117 -1.095,0.428l-7.83,8.925c-0.042,0.048 -0.065,0.109 -0.065,0.173c0,0.14 0.112,0.257 0.252,0.263" style="fill:none;fill-rule:nonzero;stroke:#865131;stroke-width:1.5px;"/><path d="M146.203,171.418l-8.213,-9c-0.077,-0.087 -0.182,-0.141 -0.292,-0.15c-1.8,-0.19 -3.65,-0.038 -5.55,0.458c-2.228,0.577 -2.385,3.502 -2.363,5.438c0.035,2.335 1.08,3.628 3.135,3.877c1.895,0.235 6.25,0.205 13.065,-0.09c0.037,-0.001 0.073,-0.009 0.107,-0.023c0.16,-0.067 0.235,-0.256 0.167,-0.419c-0.014,-0.033 -0.033,-0.063 -0.056,-0.09" style="fill:none;fill-rule:nonzero;stroke:#865131;stroke-width:1.5px;"/><path d="M240.126,172.018c2.225,-0.05 4.678,0.002 7.358,0.157c4.035,0.233 5.123,-1.89 4.845,-5.715c-0.14,-1.91 -0.943,-3.247 -2.408,-4.012c-0.769,-0.399 -1.715,-0.225 -2.28,0.42l-7.695,8.768c-0.035,0.042 -0.055,0.095 -0.055,0.15c0,0.128 0.105,0.233 0.233,0.233l0.002,0" style="fill:none;fill-rule:nonzero;stroke:#865131;stroke-width:1.5px;"/><path d="M361.558,171.913c0.102,-0.007 0.183,-0.092 0.183,-0.194c0,-0.047 -0.017,-0.093 -0.048,-0.128l-8.137,-8.925c-0.301,-0.329 -0.73,-0.515 -1.178,-0.51l-8.707,0.135c-0.291,0.004 -0.574,0.076 -0.825,0.21c-1.34,0.715 -2.115,1.865 -2.325,3.45c-0.405,3.045 0.135,6.105 3.727,6.195c4.74,0.11 10.51,0.032 17.31,-0.232" style="fill:none;fill-rule:nonzero;stroke:#865131;stroke-width:1.5px;"/><path d="M18.816,171.98l-8.062,-8.835c-0.436,-0.484 -1.054,-0.771 -1.71,-0.795c-1.44,-0.055 -2.71,0.107 -3.81,0.488c-2.243,0.772 -2.31,4.252 -2.018,6.09c0.375,2.35 1.858,3.49 4.447,3.42c5.105,-0.135 8.78,-0.165 11.025,-0.09l0.007,0c0.091,0 0.165,-0.074 0.165,-0.165c0,-0.042 -0.016,-0.082 -0.044,-0.113" style="fill:none;fill-rule:nonzero;stroke:#83383b;stroke-width:1.5px;"/><path d="M90.021,186.02c10.76,0.375 21.485,0.433 32.175,0.173c2.175,-0.055 3.313,-1.238 3.412,-3.548c0.127,-3.217 -0.15,-6.03 -3.577,-6.195c-1.9,-0.095 -6.61,-0.158 -14.13,-0.188c-0.342,0 -0.679,0.104 -0.968,0.3c-1.835,1.255 -2.872,1.958 -3.112,2.108c-4.535,2.84 -9.17,5.06 -13.905,6.66c-0.148,0.045 -0.25,0.182 -0.25,0.337c0,0.194 0.159,0.353 0.352,0.353l0.003,0" style="fill:none;fill-rule:nonzero;stroke:#865131;stroke-width:1.5px;"/><path d="M215.818,185.848c0.07,0.085 0.185,0.133 0.345,0.143c6.13,0.265 16.757,0.397 31.882,0.397c2.415,0 3.8,-1.172 4.155,-3.518c0.517,-3.382 -0.458,-6.54 -4.373,-6.517c-4.2,0.025 -8.282,0.01 -12.248,-0.045c-0.759,-0.01 -1.504,0.202 -2.145,0.608c-5.415,3.46 -11.265,6.352 -17.55,8.678c-0.062,0.025 -0.103,0.085 -0.103,0.153c0,0.037 0.012,0.073 0.035,0.102" style="fill:none;fill-rule:nonzero;stroke:#866336;stroke-width:1.5px;"/><path d="M39.898,185.45c0.098,-0.343 -0.082,-0.708 -0.413,-0.84c-4.64,-1.88 -9.085,-4.273 -13.335,-7.178c-0.679,-0.462 -1.471,-0.724 -2.287,-0.757c-4.535,-0.18 -9.638,-0.223 -15.308,-0.127c-0.745,0.01 -1.168,0.013 -1.267,0.008c-4.012,-0.202 -4.215,3.21 -3.975,6.173c0.255,3.12 2.25,3.562 5.19,3.555c7.79,0.01 15.9,0.032 24.33,0.068c2.385,0.005 4.627,-0.19 6.727,-0.585c0.078,-0.014 0.147,-0.054 0.195,-0.112c0.09,-0.115 0.137,-0.182 0.142,-0.202" style="fill:none;fill-rule:nonzero;stroke:#83383b;stroke-width:1.5px;"/><path d="M166.873,185.405c0.098,-0.347 -0.085,-0.716 -0.42,-0.848c-4.715,-1.885 -9.233,-4.29 -13.553,-7.215c-0.692,-0.466 -1.497,-0.728 -2.325,-0.758c-4.6,-0.16 -9.775,-0.18 -15.525,-0.06c-0.755,0.015 -1.183,0.02 -1.283,0.015c-4.065,-0.188 -4.26,3.277 -3.997,6.277c0.27,3.165 2.295,3.6 5.28,3.585c7.895,-0.03 16.118,-0.047 24.668,-0.052c2.415,-0.005 4.688,-0.212 6.817,-0.623c0.077,-0.015 0.146,-0.055 0.195,-0.113c0.09,-0.12 0.137,-0.19 0.142,-0.21" style="fill:none;fill-rule:nonzero;stroke:#865131;stroke-width:1.5px;"/><path d="M336.291,180.223c0,-2.069 -1.703,-3.772 -3.773,-3.772l-30.15,0c-2.069,0 -3.773,1.703 -3.773,3.772l0,2.43c0,2.069 1.703,3.772 3.773,3.772l30.15,0c2.069,0 3.773,-1.703 3.773,-3.772l0,-2.43" style="fill:none;fill-rule:nonzero;stroke:#866336;stroke-width:1.5px;"/><path d="M377.421,184.318c0.757,-2.445 -0.375,-3.518 -2.647,-4.335c-1.835,-0.665 -3.797,-1.582 -5.887,-2.753c-0.854,-0.486 -1.822,-0.737 -2.805,-0.727c-7.805,0.04 -14.837,0.008 -21.097,-0.097c-1.77,-0.03 -3.047,0.467 -3.832,1.492c-1.043,1.365 -1.208,4.35 -0.81,5.88c0.45,1.72 1.693,2.588 3.727,2.603c4.08,0.025 13.318,0.025 27.713,0c1.98,-0.007 4.95,0.158 5.64,-2.062" style="fill:none;fill-rule:nonzero;stroke:#865131;stroke-width:1.5px;"/><path d="M503.438,180.068l0,-0.007c0,-1.948 -1.601,-3.551 -3.549,-3.554l-30.51,-0.053c-0.001,-0.001 -0.004,-0.001 -0.006,-0.001c-1.948,0 -3.551,1.601 -3.555,3.549l-0.005,2.745l0,0.007c0,1.948 1.601,3.551 3.549,3.554l30.509,0.054l0.007,0c1.948,0 3.551,-1.601 3.555,-3.549l0.005,-2.745" style="fill:none;fill-rule:nonzero;stroke:#83383b;stroke-width:1.5px;"/><path d="M264.298,176.585l-5.468,0.12c-0.832,0.016 -1.552,0.6 -1.74,1.41c-0.37,1.57 -0.413,2.91 -0.128,4.02c0.038,0.157 0.181,0.269 0.343,0.269c0.098,0 0.19,-0.041 0.257,-0.112c1.98,-2.035 4.262,-3.808 6.847,-5.317c0.029,-0.019 0.053,-0.044 0.07,-0.074c0.055,-0.101 0.015,-0.231 -0.09,-0.289c-0.029,-0.016 -0.06,-0.025 -0.092,-0.027" style="fill:none;fill-rule:nonzero;stroke:#866336;stroke-width:1.5px;"/><path d="M285.501,186.56l6.54,-0.6c0.994,-0.087 1.808,-0.845 1.965,-1.83c0.315,-1.915 0.255,-3.525 -0.18,-4.83c-0.012,-0.038 -0.029,-0.074 -0.051,-0.108c-0.128,-0.191 -0.394,-0.242 -0.589,-0.112c-0.033,0.022 -0.062,0.048 -0.088,0.077c-2.205,2.605 -4.795,4.918 -7.77,6.938c-0.071,0.047 -0.113,0.127 -0.113,0.212c0,0.14 0.115,0.255 0.255,0.255c0.01,0 0.02,0 0.031,-0.001" style="fill:none;fill-rule:nonzero;stroke:#866336;stroke-width:1.5px;"/><path d="M41.093,194.333l0,-0.007c0,-2.104 -1.73,-3.836 -3.834,-3.84l-30.134,-0.053l-0.007,0c-2.104,0 -3.836,1.73 -3.84,3.833l-0.005,2.25l0,0.007c0,2.104 1.73,3.836 3.833,3.84l30.135,0.053l0.007,0c2.105,0 3.836,-1.73 3.84,-3.833l0.005,-2.25" style="fill:none;fill-rule:nonzero;stroke:#83383b;stroke-width:1.5px;"/><path d="M82.884,193.882l0,-0.005c0,-1.788 -1.469,-3.26 -3.257,-3.263l-30.645,-0.054c-1.79,-0.003 -3.265,1.467 -3.268,3.257l-0.006,3.285l0,0.005c0,1.788 1.469,3.26 3.257,3.262l30.645,0.054c1.789,0.003 3.265,-1.467 3.268,-3.257l0.006,-3.285" style="fill:none;fill-rule:nonzero;stroke:#865131;stroke-width:1.5px;"/><path d="M125.621,194.297c-0.004,-2.15 -1.773,-3.916 -3.922,-3.916l-0.007,0l-30.27,0.052c-2.149,0.004 -3.916,1.774 -3.916,3.923l0,0.007l0.005,2.175c0.004,2.149 1.773,3.916 3.922,3.916l0.007,0l30.27,-0.053c2.149,-0.004 3.916,-1.774 3.916,-3.922l0,-0.007l-0.005,-2.175" style="fill:none;fill-rule:nonzero;stroke:#865131;stroke-width:1.5px;"/><path d="M167.659,194.41c-0.005,-2.221 -1.835,-4.047 -4.058,-4.043l-29.7,0.052c-2.218,0.004 -4.043,1.831 -4.043,4.05l0,0.007l0.003,1.935c0.005,2.221 1.835,4.047 4.058,4.043l29.7,-0.053c2.219,-0.004 4.042,-1.831 4.042,-4.05l0,-0.007l-0.003,-1.935" style="fill:none;fill-rule:nonzero;stroke:#865131;stroke-width:1.5px;"/><path d="M251.621,194.305c-0.004,-2.141 -1.766,-3.901 -3.907,-3.901l-0.007,0l-29.895,0.052c-2.141,0.004 -3.901,1.766 -3.901,3.908l0,0.007l0.005,2.19c0.004,2.141 1.766,3.901 3.908,3.901l0.007,0l29.895,-0.053c2.141,-0.004 3.901,-1.766 3.901,-3.908l0,-0.007l-0.005,-2.19" style="fill:none;fill-rule:nonzero;stroke:#866336;stroke-width:1.5px;"/><path d="M317.533,199.498c0.224,0.469 0.696,0.771 1.215,0.78c5.94,0.08 10.15,0.122 12.63,0.128c4.388,0 5.452,-3.12 4.74,-6.803c-0.435,-2.243 -2.348,-3.15 -4.463,-3.15c-19.26,-0.005 -28.957,-0.013 -29.092,-0.022c-1.916,-0.144 -3.644,1.224 -3.952,3.127l-0.12,0.645c-0.017,0.092 -0.03,0.184 -0.038,0.276c-0.154,1.655 1.079,3.143 2.729,3.296c0.093,0.008 0.186,0.013 0.279,0.013l14.107,0c0.404,0 0.79,0.159 1.073,0.442c0.365,0.365 0.662,0.788 0.892,1.268" style="fill:none;fill-rule:nonzero;stroke:#866336;stroke-width:1.5px;"/><path d="M378.021,194.383c0,-2.168 -1.784,-3.952 -3.953,-3.952l-29.82,0c-2.168,0 -3.952,1.784 -3.952,3.952l0,2.13c0,2.168 1.784,3.952 3.952,3.952l29.82,0c2.168,0 3.953,-1.784 3.953,-3.952l0,-2.13" style="fill:none;fill-rule:nonzero;stroke:#865131;stroke-width:1.5px;"/><path d="M419.471,194.23c-0.004,-2.088 -1.722,-3.803 -3.81,-3.803l-0.007,0l-29.49,0.051c-2.087,0.004 -3.803,1.723 -3.803,3.81l0,0.007l0.005,2.37c0.004,2.088 1.722,3.803 3.81,3.803l0.007,0l29.49,-0.051c2.087,-0.004 3.803,-1.723 3.803,-3.81l0,-0.007l-0.005,-2.37" style="fill:none;fill-rule:nonzero;stroke:#865131;stroke-width:1.5px;"/><path d="M461.346,194.188c0,-2.053 -1.69,-3.742 -3.742,-3.742l-30.045,0c-2.053,0 -3.743,1.69 -3.743,3.742l0,2.52c0,2.053 1.69,3.743 3.743,3.743l30.045,0c2.053,0 3.742,-1.69 3.742,-3.743l0,-2.52" style="fill:none;fill-rule:nonzero;stroke:#865131;stroke-width:1.5px;"/><path d="M503.443,194.473c0,-2.201 -1.811,-4.012 -4.012,-4.012l-29.7,0c-2.201,0 -4.013,1.811 -4.013,4.012l0,1.98c0,2.201 1.811,4.013 4.013,4.013l29.7,0c2.201,0 4.012,-1.811 4.012,-4.013l0,-1.98" style="fill:none;fill-rule:nonzero;stroke:#83383b;stroke-width:1.5px;"/><path d="M209.371,194.213l0,-0.007c0,-1.973 -1.621,-3.596 -3.594,-3.6l-30.359,-0.053l-0.007,0c-1.973,0 -3.596,1.621 -3.6,3.593l-0.004,2.625l0,0.007c0,1.972 1.621,3.596 3.594,3.6l30.36,0.053l0.006,0c1.972,0 3.596,-1.621 3.6,-3.593l0.005,-2.625" style="fill:none;fill-rule:nonzero;stroke:#866336;stroke-width:1.5px;"/><path d="M271.588,197.12c0.071,0.273 0.322,0.465 0.608,0.465l19.797,0c1.502,0 2.737,-1.236 2.737,-2.738c0,-0.174 -0.016,-0.347 -0.049,-0.517l-0.068,-0.345c-0.28,-1.951 -1.97,-3.413 -3.938,-3.405c-6.235,0.03 -10.2,0.08 -11.895,0.15c-0.95,0.04 -1.882,0.41 -2.798,1.11c-2.025,1.545 -4.927,3.315 -4.395,5.28" style="fill:none;fill-rule:nonzero;stroke:#866336;stroke-width:1.5px;"/><path d="M37.19,122.146c-0.49,15.594 11.996,28.831 27.66,29.323c15.664,0.493 28.957,-11.935 29.447,-27.529c0.49,-15.594 -11.996,-28.831 -27.66,-29.323c-15.664,-0.493 -28.957,11.935 -29.447,27.529" style="fill:none;fill-rule:nonzero;stroke:#8c8c8c;stroke-width:1.5px;"/><path d="M36.943,69.928c0.2,0.025 0.392,-0.013 0.577,-0.113c10.28,-5.33 20.75,-7.718 31.41,-7.163c25.305,1.312 48.225,19.335 55.14,43.875c3.065,10.87 3.135,21.605 0.21,32.205c-8.7,31.53 -40.575,49.162 -72.15,42.127c-13.04,-2.905 -23.985,-9.437 -32.835,-19.597c-10.41,-11.963 -15.12,-26.572 -15.128,-42.6c-0.015,-32.685 -0.032,-65.308 -0.052,-97.868c0,-4.81 1.258,-8.717 3.773,-11.722c8.01,-9.562 23.73,-7.455 28.118,4.875c0.535,1.5 0.802,3.752 0.802,6.757c-0.025,21.455 -0.037,37.798 -0.037,49.027c-0.001,0.099 0.074,0.184 0.173,0.195Zm0.247,52.218c-0.49,15.594 11.996,28.831 27.66,29.323c15.664,0.493 28.957,-11.935 29.447,-27.529c0.49,-15.594 -11.996,-28.831 -27.66,-29.323c-15.664,-0.493 -28.957,11.935 -29.447,27.529Z" style="fill:#fff;fill-rule:nonzero;"/><path d="M266.023,57.973c-0.004,-0.015 -0.007,-0.031 -0.009,-0.046c-0.023,-0.184 0.112,-0.355 0.3,-0.378c0.015,-0.002 0.031,-0.003 0.047,-0.003l13.717,-0.045c1.034,-0.004 1.882,-0.856 1.882,-1.89l0,-0.052c-0.071,-1.145 -1.033,-2.046 -2.175,-2.04l-15.322,0.03c-0.322,-0.001 -0.607,-0.211 -0.705,-0.517l-1.125,-3.548c-0.007,-0.022 -0.013,-0.045 -0.017,-0.068c-0.036,-0.232 0.129,-0.452 0.364,-0.489c0.021,-0.003 0.043,-0.005 0.065,-0.005l17.025,-0.037c1.027,-0.004 1.876,-0.83 1.905,-1.853l0,-0.075c0.001,-0.032 0.002,-0.065 0.002,-0.098c0,-0.998 -0.819,-1.82 -1.817,-1.822l-17.97,-0.09c-0.308,0 -0.562,-0.254 -0.562,-0.562l0,-3.488c0,-0.238 0.197,-0.435 0.435,-0.435l18.45,-0.023l0.003,0c0.872,0 1.59,-0.718 1.59,-1.59c0,-0.08 -0.006,-0.161 -0.018,-0.24l-0.008,-0.045c-0.133,-1.072 -1.054,-1.882 -2.13,-1.875l-17.865,0.09l-0.002,0c-0.197,0 -0.36,-0.163 -0.36,-0.36c0,-0.013 0.001,-0.025 0.002,-0.038l0.42,-3.712c0.027,-0.239 0.232,-0.422 0.473,-0.42l17.452,0c1.003,-0.002 1.828,-0.827 1.828,-1.83c0,-0.045 -0.002,-0.09 -0.005,-0.135l-0.015,-0.255c-0.074,-1.021 -0.938,-1.822 -1.965,-1.822l-15.743,-0.007c-0.028,0 -0.055,-0.002 -0.082,-0.007c-0.301,-0.047 -0.51,-0.33 -0.463,-0.627c0.004,-0.029 0.012,-0.058 0.021,-0.086c3.285,-10.11 11.842,-18.465 22.05,-21.15c17.197,-4.53 33.892,4.89 39.69,21.465c0.005,0.016 0.009,0.031 0.012,0.047c0.029,0.166 -0.082,0.325 -0.244,0.353c-0.018,0.003 -0.035,0.005 -0.053,0.005l-16.507,0.015c-1.104,-0.002 -2.029,0.87 -2.092,1.972l-0.007,0.12c-0.005,0.05 -0.007,0.1 -0.007,0.15c0,0.959 0.789,1.748 1.747,1.748l0.007,0l17.745,-0.052c0.42,-0.005 0.778,0.32 0.817,0.742l0.3,3.248c0.001,0.007 0.002,0.014 0.002,0.021c0.013,0.234 -0.176,0.438 -0.418,0.451c-0.006,0.001 -0.012,0.001 -0.018,0.001l-18.233,0.112c-1.034,0.004 -1.882,0.856 -1.882,1.89l0,0.053c0,0.96 0.788,1.751 1.748,1.755l18.353,0.12c0.357,0.001 0.649,0.296 0.649,0.652c0,0.025 -0.002,0.05 -0.005,0.075l-0.33,2.955c-0.046,0.42 -0.407,0.742 -0.832,0.743l-17.543,-0.127c-0.035,0 -0.071,0 -0.106,0.002c-1.073,0.049 -1.915,0.974 -1.866,2.051c0.002,0.033 0.004,0.066 0.007,0.099l0.008,0.052c0.097,1.131 1.062,2.007 2.197,1.995l17.04,-0.165c0.015,0 0.029,0.001 0.043,0.004c0.122,0.023 0.202,0.145 0.178,0.27c-0.002,0.014 -0.006,0.028 -0.011,0.041l-1.628,4.215c-0.027,0.067 -0.092,0.112 -0.165,0.113l-15.922,0.098c-0.851,0.007 -1.546,0.709 -1.546,1.56c0,0.103 0.011,0.206 0.031,0.307l0.038,0.248c0.158,1.031 1.053,1.801 2.092,1.8l12.962,0c0.321,0 0.585,0.264 0.585,0.585c0,0.097 -0.024,0.192 -0.07,0.277c-0.38,0.71 -1.305,2.098 -2.775,4.163c-8.077,11.332 -22.327,15.42 -35.37,11.272c-6.96,-2.215 -12.737,-6.83 -17.332,-13.845c-0.49,-0.745 -0.81,-1.415 -0.96,-2.01Z" style="fill:#fff;fill-rule:nonzero;"/><path d="M348.883,63.665c0.145,0 0.266,-0.117 0.27,-0.263c0.01,-0.435 -0.01,-6.853 -0.06,-19.252c-0.02,-5.83 0.13,-9.362 0.45,-10.598c2.557,-9.803 13.162,-15.158 22.537,-10.402c3.955,2.01 6.662,5.01 8.123,9c0.74,2.03 1.055,5.155 0.945,9.375c-0.11,4.305 -0.14,11.525 -0.09,21.66c0.004,0.298 0.25,0.54 0.548,0.54l0.007,0c10.725,-0.06 17.638,-0.107 20.737,-0.142c7.885,-0.075 13.405,3.405 16.56,10.44c1.868,4.147 1.462,9.555 -0.938,13.575c-3.817,6.428 -9.345,8.408 -16.942,8.22c-1.735,-0.04 -8.33,-0.002 -19.785,0.113c-0.091,0.004 -0.165,0.081 -0.165,0.173c-0.05,10.88 -0.007,21.29 0.128,31.23c0.135,10.358 8.085,20.175 18.9,20.025c3.59,-0.05 5.79,-0.01 6.6,0.12c4.987,0.78 9.855,4.47 12.053,9.33c2.872,6.375 1.2,13.875 -4.11,18.42c-4.808,4.11 -10.65,4.5 -16.98,4.042c-12.93,-0.925 -23.73,-5.818 -32.4,-14.677c-9.75,-9.96 -16.163,-23.49 -16.192,-37.455c-0.03,-16.87 -0.043,-27.16 -0.038,-30.87l0,-0.001c0,-0.185 -0.152,-0.338 -0.337,-0.338c-0.007,0 -0.015,0 -0.022,0.001c-6.173,0.442 -11.783,-0.195 -16.455,-4.793c-6.405,-6.315 -6.412,-16.103 -0.225,-22.545c5.092,-5.302 10.102,-4.905 16.882,-4.927Z" style="fill:#fff;fill-rule:nonzero;"/><path d="M212.076,101.698c0.085,-0.174 0.034,-0.384 -0.12,-0.495c-6.945,-5.07 -14.767,-7.478 -23.347,-5.978c-18.547,3.255 -28.642,24.158 -19.875,41.063c4.38,8.445 12.105,13.44 21.405,14.662c4.575,0.6 9.497,-0.097 14.767,-2.092c2.678,-1.013 4.192,-3.158 6.735,-4.298c3.5,-1.575 7.618,-3.125 12.352,-4.65c9.27,-2.985 16.875,0.375 24.293,5.79c0.284,0.209 0.384,0.589 0.24,0.908c-7.072,16.028 -19.995,27.255 -36.788,32.632c-23.865,7.635 -51.255,0.465 -66.577,-20.393c-8.81,-12 -12.727,-25.027 -11.752,-39.083c1.627,-23.325 15.615,-43.447 37.178,-52.627c16.748,-7.132 36.067,-5.715 51.817,3.45c11.295,6.577 21.42,16.845 25.635,29.025c3.09,8.902 -2.715,19.148 -9.322,24.855c-1.885,1.635 -4.843,3.25 -8.873,4.845c-11.49,4.55 -21.68,8.072 -30.57,10.568c-6.608,1.86 -14.61,0.195 -18.577,-5.745c-6.39,-9.578 -2.648,-21.293 8.452,-24.435c7.295,-2.065 14.695,-4.528 22.2,-7.388c0.35,-0.135 0.592,-0.34 0.728,-0.615Z" style="fill:#fff;fill-rule:nonzero;"/><path d="M460.101,74.015c0.2,-0.14 2.005,-1.555 5.415,-4.245c7.822,-6.173 18.705,-8.82 28.11,-5.227c4.455,1.702 8.355,5.858 9.743,10.507c2.64,8.895 -2.093,17.325 -10.845,20.212c-3.285,1.08 -8.415,0.278 -11.423,0.577c-9.945,0.99 -17.632,6.615 -20.37,16.132c-0.35,1.22 -0.515,3.968 -0.495,8.243c0.04,8.955 0.03,23.63 -0.03,44.025c-0.022,8.25 -6.285,15.27 -14.43,16.26c-8.07,0.975 -15.188,-3.255 -18.023,-10.852c-0.65,-1.75 -0.967,-4.753 -0.952,-9.008c0.11,-31.75 0.095,-57.82 -0.045,-78.21c-0.03,-4.29 0.25,-7.205 0.84,-8.745c2.183,-5.715 7.343,-10.38 13.8,-10.778c8.64,-0.525 14.678,3.122 18.112,10.942c0.063,0.144 0.206,0.237 0.364,0.237c0.082,0 0.162,-0.025 0.229,-0.072Z" style="fill:#fff;fill-rule:nonzero;"/><path d="M312.441,76.25c0.031,-0.016 0.065,-0.024 0.099,-0.024c0.119,0 0.218,0.098 0.218,0.218c0,0.008 -0.001,0.016 -0.002,0.024c-0.23,1.975 -0.42,3.932 -0.57,5.873c-0.202,2.64 -3.188,3.99 -5.625,4.658c-1.157,0.32 -2.046,1.195 -2.325,2.287c-0.24,0.955 -0.433,2.38 -0.578,4.275c-0.965,12.505 -1.635,23.888 -2.01,34.147c-0.015,0.416 -0.112,0.826 -0.285,1.208c-0.72,1.59 -1.91,2.67 -3.57,3.24c-0.65,0.225 -1.091,0.837 -1.095,1.522c-0.04,5.65 -0.04,10.208 0,13.673c0.06,5.495 -0.343,9.992 -1.208,13.493c-1.825,7.4 -5.957,13.468 -12.397,18.202c-4.34,3.19 -8.425,5.987 -12.255,8.392c-4.05,2.535 -7.133,6.045 -6.855,10.988c0.202,3.63 3.78,7.245 7.118,8.198c1.89,0.54 4.142,0.808 6.757,0.802c15.89,-0.045 29.68,-0.073 41.37,-0.082c1.588,-0.001 2.903,1.285 2.94,2.872l0.007,0.173c0,0.01 0.001,0.019 0.001,0.029c0.021,1.505 -1.205,2.762 -2.714,2.783l-0.031,0c-1.1,0 -13.805,0.005 -38.115,0.015c-4.665,0.005 -7.72,-0.095 -9.165,-0.3c-6.817,-0.952 -12.495,-5.4 -14.032,-12.225c-0.87,-3.855 -0.277,-7.793 2.115,-11.13c2.09,-2.92 4.358,-5.15 6.803,-6.69c11.452,-7.222 22.8,-14.01 23.475,-29.49c0.24,-5.49 0.255,-12.175 0.045,-20.055c-0.013,-0.445 -0.275,-0.846 -0.675,-1.035c-2.587,-1.223 -3.36,-2.82 -3.517,-5.873c-0.625,-12.125 -1.33,-23.377 -2.115,-33.757c-0.21,-2.842 -0.173,-4.725 -2.707,-5.775c-2.175,-0.9 -3.595,-1.607 -4.26,-2.123c-0.596,-0.388 -0.986,-1.028 -1.058,-1.74l-0.585,-5.805c-0.001,-0.017 -0.002,-0.034 -0.002,-0.051c0,-0.292 0.24,-0.533 0.533,-0.533c0.079,0 0.156,0.017 0.227,0.051c12.295,5.79 24.31,5.645 36.045,-0.435Z" style="fill:#fff;fill-rule:nonzero;"/><path d="M278.016,115.205c0,0.358 -0.295,0.653 -0.653,0.653l-17.092,0.06c-2.062,0.004 -3.764,-1.752 -3.773,-3.892l-0.015,-2.58l0,-0.001c-0.007,-2.144 1.686,-3.913 3.752,-3.921l0.006,0l17.093,-0.06c0.358,0 0.653,0.295 0.653,0.652l0.03,9.09Z" style="fill:#f3ad54;fill-rule:nonzero;"/><path d="M278.953,129.553c0,0.169 -0.139,0.307 -0.308,0.307l-17.933,0.038l-0.001,0c-2.221,0.004 -4.053,-1.797 -4.057,-3.99l0,-1.95c-0.004,-2.193 1.821,-4 4.043,-4.005l17.932,-0.037c0.169,0 0.308,0.139 0.308,0.307l0.015,9.33Z" style="fill:#f3ad54;fill-rule:nonzero;"/><path d="M308.923,120.425c0,-0.268 0.22,-0.488 0.487,-0.488l22.455,0.038c2.432,0.004 4.429,1.86 4.425,4.11l0,1.725c-0.004,2.251 -2.008,4.1 -4.44,4.095l-22.455,-0.038c-0.268,0 -0.488,-0.22 -0.488,-0.488l0.015,-8.955Z" style="fill:#f3ad54;fill-rule:nonzero;"/><path d="M283.783,142.708c0.001,0.624 -0.494,1.146 -1.117,1.178c-0.97,0.05 -7.453,0.052 -19.447,0.007c-1.78,-0.005 -3.037,-0.075 -3.772,-0.21c-2.67,-0.487 -2.827,-3.465 -2.76,-5.64c0.075,-2.618 1.478,-3.952 3.923,-3.997c5.53,-0.095 12.09,-0.058 19.68,0.112c0.329,0.005 0.639,0.153 0.848,0.405l2.572,3.105c0.048,0.059 0.075,0.135 0.075,0.218l0,4.822Z" style="fill:#f3ad54;fill-rule:nonzero;"/><path d="M303.726,143.083l0,-5.73c0.001,-0.202 0.098,-0.392 0.262,-0.51l3.225,-2.348c0.308,-0.224 0.675,-0.348 1.05,-0.352c8.96,-0.175 16.988,-0.18 24.082,-0.015c3.593,0.082 4.133,2.865 3.878,6.053c-0.262,3.345 -2.617,3.765 -5.722,3.757c-12.875,-0.02 -20.74,-0.04 -23.595,-0.06c-0.485,-0.005 -1.375,-0.082 -2.67,-0.233c-0.29,-0.031 -0.512,-0.275 -0.51,-0.562Z" style="fill:#f3ad54;fill-rule:nonzero;"/><path d="M283.716,155.78c0,1.218 -1.002,2.22 -2.22,2.22c0,0 -20.925,0.038 -20.926,0.038c-2.329,0.004 -4.248,-1.808 -4.252,-4.012l0,-1.95c-0.004,-2.205 1.909,-4.023 4.238,-4.028l20.925,-0.037c1.218,0 2.22,1.002 2.22,2.22l0.015,5.55Z" style="fill:#f3ad54;fill-rule:nonzero;"/><path d="M303.583,148.828c0,-0.457 0.376,-0.832 0.832,-0.832l27.562,0c2.386,0 4.35,1.872 4.35,4.148l0,1.77c0,2.276 -1.964,4.147 -4.35,4.147l-27.562,0c-0.457,0 -0.832,-0.376 -0.832,-0.832l0,-8.4Z" style="fill:#f3ad54;fill-rule:nonzero;"/><path d="M280.716,162.808c-2.095,3.815 -4.875,6.758 -8.34,8.828c-0.575,0.344 -1.229,0.532 -1.898,0.547c-3.08,0.075 -5.878,0.12 -8.392,0.135c-4.448,0.022 -5.97,-1.26 -5.835,-5.798c0.082,-2.887 1.507,-4.35 4.552,-4.38c6.94,-0.075 13.463,-0.05 19.568,0.075c0.032,0 0.065,0.005 0.097,0.013c0.211,0.055 0.338,0.277 0.282,0.492c-0.007,0.031 -0.019,0.06 -0.034,0.088Z" style="fill:#f3ad54;fill-rule:nonzero;"/><path d="M302.158,162.973c0.181,-0.473 0.637,-0.784 1.14,-0.78c2.615,0.005 11.683,-0.037 27.202,-0.127c2.482,-0.015 4.68,0.39 5.632,2.91c0.185,0.48 0.21,1.607 0.075,3.382c-0.21,2.872 -1.972,3.915 -4.74,3.907c-15.555,-0.075 -24.93,-0.085 -28.125,-0.03c-1.11,0.02 -2.072,-0.193 -2.888,-0.637c-0.765,-0.421 -1.103,-1.357 -0.787,-2.175l2.49,-6.45Z" style="fill:#f3ad54;fill-rule:nonzero;"/><path d="M215.818,185.848c-0.023,-0.029 -0.035,-0.065 -0.035,-0.102c0,-0.068 0.041,-0.127 0.103,-0.153c6.285,-2.325 12.135,-5.218 17.55,-8.678c0.641,-0.406 1.386,-0.617 2.145,-0.608c3.965,0.055 8.048,0.07 12.248,0.045c3.915,-0.023 4.89,3.135 4.373,6.517c-0.355,2.345 -1.74,3.518 -4.155,3.518c-15.125,0 -25.753,-0.133 -31.882,-0.397c-0.16,-0.01 -0.275,-0.058 -0.345,-0.143Z" style="fill:#f3ad54;fill-rule:nonzero;"/><path d="M336.291,180.223l0,2.43c0,2.082 -1.69,3.772 -3.773,3.772l-30.15,0c-2.082,0 -3.773,-1.69 -3.773,-3.772l0,-2.43c0,-2.082 1.691,-3.772 3.773,-3.772l30.15,0c2.082,0 3.773,1.691 3.773,3.772Z" style="fill:#f3ad54;"/><path d="M264.298,176.585c0.032,0.002 0.064,0.011 0.092,0.027c0.105,0.058 0.145,0.188 0.09,0.289c-0.017,0.03 -0.04,0.055 -0.07,0.074c-2.585,1.51 -4.867,3.283 -6.847,5.317c-0.067,0.071 -0.16,0.112 -0.257,0.112c-0.162,0 -0.304,-0.112 -0.343,-0.269c-0.285,-1.11 -0.242,-2.45 0.128,-4.02c0.188,-0.81 0.908,-1.394 1.74,-1.41l5.468,-0.12Z" style="fill:#f3ad54;fill-rule:nonzero;"/><path d="M285.501,186.56c-0.01,0.001 -0.02,0.001 -0.031,0.001c-0.14,0 -0.255,-0.115 -0.255,-0.255c0,-0.085 0.043,-0.164 0.113,-0.212c2.975,-2.02 5.565,-4.333 7.77,-6.938c0.026,-0.029 0.055,-0.056 0.088,-0.077c0.195,-0.13 0.461,-0.079 0.589,0.112c0.022,0.034 0.039,0.07 0.051,0.108c0.435,1.305 0.495,2.915 0.18,4.83c-0.157,0.985 -0.971,1.743 -1.965,1.83l-6.54,0.6Z" style="fill:#f3ad54;fill-rule:nonzero;"/><g><path d="M251.621,194.305l0.004,2.19c0.004,2.156 -1.744,3.911 -3.901,3.914l-29.895,0.052c-2.156,0.004 -3.911,-1.744 -3.914,-3.901l-0.004,-2.19c-0.004,-2.156 1.744,-3.911 3.901,-3.914l29.895,-0.052c2.156,-0.004 3.911,1.744 3.914,3.901Z" style="fill:#f3ad54;"/></g><path d="M317.533,199.498c-0.23,-0.48 -0.527,-0.902 -0.892,-1.268c-0.283,-0.283 -0.669,-0.442 -1.073,-0.442l-14.107,0c-0.093,0 -0.186,-0.005 -0.279,-0.013c-1.651,-0.153 -2.883,-1.641 -2.729,-3.296c0.008,-0.092 0.021,-0.184 0.038,-0.276l0.12,-0.645c0.309,-1.903 2.037,-3.271 3.952,-3.127c0.135,0.01 9.832,0.017 29.092,0.022c2.115,0 4.028,0.908 4.463,3.15c0.712,3.682 -0.353,6.803 -4.74,6.803c-2.48,-0.005 -6.69,-0.047 -12.63,-0.128c-0.519,-0.009 -0.991,-0.311 -1.215,-0.78Z" style="fill:#f3ad54;fill-rule:nonzero;"/><g><path d="M209.371,194.213l-0.005,2.625c-0.003,1.987 -1.62,3.597 -3.606,3.594l-30.36,-0.053c-1.987,-0.003 -3.597,-1.62 -3.594,-3.606l0.005,-2.625c0.003,-1.987 1.62,-3.597 3.606,-3.594l30.36,0.053c1.987,0.003 3.597,1.62 3.594,3.606Z" style="fill:#f3ad54;"/></g><path d="M271.588,197.12c-0.532,-1.965 2.37,-3.735 4.395,-5.28c0.915,-0.7 1.847,-1.07 2.798,-1.11c1.695,-0.07 5.66,-0.12 11.895,-0.15c1.967,-0.008 3.658,1.454 3.938,3.405l0.068,0.345c0.033,0.17 0.049,0.344 0.049,0.517c0,1.502 -1.236,2.738 -2.737,2.738l-19.797,0c-0.285,0 -0.536,-0.192 -0.608,-0.465Z" style="fill:#f3ad54;fill-rule:nonzero;"/><g><path d="M503.329,123.625l0.004,2.505c0.004,2.024 -1.637,3.67 -3.661,3.674l-29.91,0.052c-2.024,0.004 -3.67,-1.637 -3.674,-3.661l-0.004,-2.505c-0.004,-2.024 1.637,-3.67 3.661,-3.674l29.91,-0.052c2.024,-0.004 3.67,1.637 3.674,3.661Z" style="fill:#ed585d;"/></g><g><path d="M503.388,137.711l-0.009,2.61c-0.007,1.975 -1.615,3.572 -3.59,3.565l-30.42,-0.106c-1.975,-0.007 -3.572,-1.615 -3.565,-3.59l0.009,-2.61c0.007,-1.975 1.615,-3.572 3.59,-3.565l30.42,0.106c1.975,0.007 3.572,1.615 3.565,3.59Z" style="fill:#ed585d;"/></g><path d="M503.368,151.67l0,2.82c0,1.987 -1.613,3.6 -3.6,3.6l-30.105,0c-1.987,0 -3.6,-1.613 -3.6,-3.6l0,-2.82c0,-1.987 1.613,-3.6 3.6,-3.6l30.105,0c1.987,0 3.6,1.613 3.6,3.6Z" style="fill:#ed585d;"/><path d="M503.496,166.025l0,2.37c0,2.14 -1.738,3.877 -3.877,3.877l-29.73,0c-2.14,0 -3.877,-1.738 -3.877,-3.877l0,-2.37c0,-2.14 1.738,-3.878 3.877,-3.878l29.73,0c2.14,0 3.877,1.738 3.877,3.878Z" style="fill:#ed585d;"/><path d="M18.816,171.98c0.029,0.031 0.044,0.071 0.044,0.113c0,0.091 -0.074,0.165 -0.165,0.165l-0.007,0c-2.245,-0.075 -5.92,-0.045 -11.025,0.09c-2.59,0.07 -4.072,-1.07 -4.447,-3.42c-0.293,-1.838 -0.225,-5.318 2.018,-6.09c1.1,-0.38 2.37,-0.542 3.81,-0.488c0.656,0.024 1.274,0.31 1.71,0.795l8.062,8.835Z" style="fill:#ed585d;fill-rule:nonzero;"/><path d="M39.898,185.45c-0.005,0.02 -0.053,0.088 -0.142,0.202c-0.048,0.058 -0.117,0.098 -0.195,0.112c-2.1,0.395 -4.343,0.59 -6.727,0.585c-8.43,-0.035 -16.54,-0.058 -24.33,-0.068c-2.94,0.008 -4.935,-0.435 -5.19,-3.555c-0.24,-2.963 -0.037,-6.375 3.975,-6.173c0.1,0.005 0.523,0.002 1.267,-0.008c5.67,-0.095 10.772,-0.053 15.308,0.127c0.816,0.033 1.609,0.296 2.287,0.757c4.25,2.905 8.695,5.297 13.335,7.178c0.331,0.132 0.511,0.497 0.413,0.84Z" style="fill:#ed585d;fill-rule:nonzero;"/><g><path d="M503.438,180.068l-0.005,2.745c-0.003,1.962 -1.599,3.552 -3.561,3.549l-30.51,-0.053c-1.962,-0.003 -3.552,-1.599 -3.549,-3.561l0.005,-2.745c0.003,-1.962 1.599,-3.552 3.561,-3.549l30.51,0.053c1.962,0.003 3.552,1.599 3.549,3.561Z" style="fill:#ed585d;"/></g><g><path d="M41.093,194.333l-0.004,2.25c-0.004,2.119 -1.727,3.837 -3.847,3.833l-30.135,-0.053c-2.119,-0.004 -3.837,-1.727 -3.833,-3.847l0.004,-2.25c0.004,-2.119 1.727,-3.837 3.847,-3.833l30.135,0.053c2.119,0.004 3.837,1.727 3.833,3.847Z" style="fill:#ed585d;"/></g><path d="M503.443,194.473l0,1.98c0,2.215 -1.798,4.013 -4.012,4.013l-29.7,0c-2.215,0 -4.013,-1.798 -4.013,-4.013l0,-1.98c0,-2.215 1.798,-4.012 4.013,-4.012l29.7,0c2.215,0 4.012,1.798 4.012,4.012Z" style="fill:#ed585d;"/><path d="M135.493,157.828c0.016,0.032 0.024,0.065 0.024,0.101c0,0.11 -0.081,0.204 -0.189,0.222c-2.325,0.435 -5.805,-0.195 -6.045,-3c-0.188,-2.183 0.113,-5.07 0.84,-7.365c0.01,-0.033 0.026,-0.063 0.049,-0.088c0.089,-0.103 0.25,-0.112 0.355,-0.02c0.026,0.022 0.047,0.048 0.062,0.078l4.905,10.072Z" style="fill:#f48a4a;fill-rule:nonzero;"/><path d="M113.398,172.01c-0.14,-0.005 -0.252,-0.122 -0.252,-0.263c0,-0.063 0.023,-0.125 0.065,-0.173l7.83,-8.925c0.272,-0.311 0.68,-0.47 1.095,-0.428c3.292,0.338 3.578,2.715 3.683,5.745c0.105,3.045 -1.485,4.155 -4.35,4.2c-2.725,0.045 -5.415,-0.007 -8.07,-0.157Z" style="fill:#f48a4a;fill-rule:nonzero;"/><path d="M145.986,171.95c-6.815,0.295 -11.17,0.325 -13.065,0.09c-2.055,-0.25 -3.1,-1.543 -3.135,-3.877c-0.022,-1.935 0.135,-4.86 2.363,-5.438c1.9,-0.495 3.75,-0.647 5.55,-0.458c0.11,0.009 0.215,0.063 0.292,0.15l8.213,9c0.023,0.027 0.043,0.057 0.056,0.09c0.067,0.163 -0.007,0.352 -0.167,0.419c-0.034,0.014 -0.07,0.022 -0.107,0.023Z" style="fill:#f48a4a;fill-rule:nonzero;"/><path d="M239.946,171.635l7.695,-8.768c0.565,-0.645 1.51,-0.819 2.28,-0.42c1.465,0.765 2.267,2.102 2.408,4.012c0.278,3.825 -0.81,5.947 -4.845,5.715c-2.68,-0.155 -5.132,-0.208 -7.358,-0.157l-0.002,0c-0.128,0 -0.233,-0.105 -0.233,-0.233c0,-0.055 0.019,-0.108 0.055,-0.15Z" style="fill:#f48a4a;fill-rule:nonzero;"/><path d="M361.558,171.913c-6.8,0.265 -12.57,0.343 -17.31,0.232c-3.592,-0.09 -4.132,-3.15 -3.727,-6.195c0.21,-1.585 0.985,-2.735 2.325,-3.45c0.251,-0.133 0.534,-0.205 0.825,-0.21l8.707,-0.135c0.448,-0.005 0.877,0.181 1.178,0.51l8.137,8.925c0.031,0.035 0.048,0.081 0.048,0.128c0,0.102 -0.081,0.188 -0.183,0.194Z" style="fill:#f48a4a;fill-rule:nonzero;"/><path d="M90.021,186.02l-0.003,0c-0.193,0 -0.352,-0.159 -0.352,-0.353c0,-0.155 0.102,-0.293 0.25,-0.337c4.735,-1.6 9.37,-3.82 13.905,-6.66c0.24,-0.15 1.277,-0.853 3.112,-2.108c0.289,-0.196 0.626,-0.3 0.968,-0.3c7.52,0.03 12.23,0.092 14.13,0.188c3.428,0.165 3.705,2.978 3.577,6.195c-0.1,2.31 -1.237,3.493 -3.412,3.548c-10.69,0.26 -21.415,0.202 -32.175,-0.173Z" style="fill:#f48a4a;fill-rule:nonzero;"/><path d="M166.873,185.405c-0.005,0.02 -0.053,0.09 -0.142,0.21c-0.049,0.058 -0.118,0.098 -0.195,0.113c-2.13,0.41 -4.402,0.617 -6.817,0.623c-8.55,0.005 -16.772,0.022 -24.668,0.052c-2.985,0.015 -5.01,-0.42 -5.28,-3.585c-0.262,-3 -0.067,-6.465 3.997,-6.277c0.1,0.005 0.527,0 1.283,-0.015c5.75,-0.12 10.925,-0.1 15.525,0.06c0.828,0.029 1.633,0.292 2.325,0.758c4.32,2.925 8.837,5.33 13.553,7.215c0.335,0.132 0.518,0.501 0.42,0.848Z" style="fill:#f48a4a;fill-rule:nonzero;"/><path d="M377.421,184.318c-0.69,2.22 -3.66,2.055 -5.64,2.062c-14.395,0.025 -23.632,0.025 -27.713,0c-2.035,-0.015 -3.277,-0.883 -3.727,-2.603c-0.398,-1.53 -0.233,-4.515 0.81,-5.88c0.785,-1.025 2.062,-1.523 3.832,-1.492c6.26,0.105 13.292,0.137 21.097,0.097c0.983,-0.01 1.951,0.242 2.805,0.727c2.09,1.17 4.052,2.087 5.887,2.753c2.272,0.817 3.405,1.89 2.647,4.335Z" style="fill:#f48a4a;fill-rule:nonzero;"/><g><path d="M82.884,193.883l-0.006,3.285c-0.003,1.801 -1.467,3.26 -3.268,3.257l-30.645,-0.053c-1.801,-0.003 -3.26,-1.467 -3.257,-3.268l0.006,-3.285c0.003,-1.801 1.467,-3.26 3.268,-3.257l30.645,0.053c1.801,0.003 3.26,1.467 3.257,3.268Z" style="fill:#f48a4a;"/></g><g><path d="M125.621,194.297l0.004,2.175c0.004,2.165 -1.75,3.926 -3.916,3.929l-30.27,0.053c-2.165,0.004 -3.926,-1.75 -3.929,-3.916l-0.004,-2.175c-0.004,-2.165 1.75,-3.926 3.916,-3.929l30.27,-0.053c2.165,-0.004 3.926,1.75 3.929,3.916Z" style="fill:#f48a4a;"/></g><g><path d="M167.659,194.41l0.003,1.935c0.004,2.235 -1.808,4.053 -4.043,4.057l-29.7,0.052c-2.235,0.004 -4.053,-1.808 -4.057,-4.043l-0.003,-1.935c-0.004,-2.235 1.808,-4.053 4.043,-4.057l29.7,-0.052c2.235,-0.004 4.053,1.808 4.057,4.043Z" style="fill:#f48a4a;"/></g><path d="M378.021,194.383l0,2.13c0,2.182 -1.771,3.952 -3.953,3.952l-29.82,0c-2.182,0 -3.952,-1.771 -3.952,-3.952l0,-2.13c0,-2.182 1.771,-3.952 3.952,-3.952l29.82,0c2.182,0 3.953,1.771 3.953,3.952Z" style="fill:#f48a4a;"/><g><path d="M419.471,194.23l0.004,2.37c0.004,2.103 -1.7,3.813 -3.803,3.817l-29.49,0.051c-2.103,0.004 -3.813,-1.7 -3.817,-3.803l-0.004,-2.37c-0.004,-2.103 1.7,-3.813 3.803,-3.817l29.49,-0.051c2.103,-0.004 3.813,1.7 3.817,3.803Z" style="fill:#f48a4a;"/></g><path d="M461.346,194.188l0,2.52c0,2.065 -1.677,3.743 -3.742,3.743l-30.045,0c-2.066,0 -3.743,-1.677 -3.743,-3.743l0,-2.52c0,-2.065 1.677,-3.742 3.743,-3.742l30.045,0c2.065,0 3.742,1.677 3.742,3.742Z" style="fill:#f48a4a;"/></svg>